<svg width="24" height="24" viewBox="0 0 24 24" fill="none" xmlns="http://www.w3.org/2000/svg">
<path d="M22.141 8.25H7.18373C6.09145 8.25 5.1401 8.59531 4.3297 9.28594C3.5193 9.97656 3.1141 10.8531 3.1141 11.9156V18.875L5.20177 11.8891C5.3427 11.4286 5.60256 11.0612 5.98134 10.7867C6.36011 10.5122 6.77853 10.375 7.23658 10.375H20.8725C21.5948 10.375 22.163 10.6628 22.577 11.2383C22.991 11.8138 23.1011 12.438 22.9073 13.1109L21.0046 19.4859C20.8637 19.9464 20.6038 20.3138 20.2251 20.5883C19.8463 20.8628 19.4279 21 18.9698 21H3.1141C2.53272 21 2.03503 20.7919 1.62102 20.3758C1.20701 19.9596 1 19.4594 1 18.875V6.125C1 5.54062 1.20701 5.04036 1.62102 4.62422C2.03503 4.20807 2.53272 4 3.1141 4H8.58432C8.8662 4 9.13486 4.05312 9.39032 4.15937C9.64577 4.26562 9.87039 4.41615 10.0642 4.61094L11.5705 6.125H20.0269C20.6082 6.125 21.1059 6.33307 21.5199 6.74922C21.934 7.16536 22.141 7.66562 22.141 8.25Z" fill="#0061FE"/>
</svg>
