<svg width="24" height="24" viewBox="0 0 24 24" fill="none" xmlns="http://www.w3.org/2000/svg">
<path fill-rule="evenodd" clip-rule="evenodd" d="M4.6665 19.9932C4.77811 19.7971 4.91259 19.6084 5.06996 19.427C5.61121 18.8031 6.31945 18.4043 7.19467 18.2304C7.45954 17.402 7.95185 16.7065 8.6716 16.144C9.39136 15.5815 10.2234 15.2389 11.1677 15.1162V20.0713L10.5458 19.5344C10.4192 19.4219 10.2608 19.3656 10.0708 19.3656C9.88079 19.3656 9.71669 19.427 9.57849 19.5497C9.45182 19.6622 9.38848 19.8054 9.38848 19.9793C9.38848 20.1531 9.45182 20.2963 9.57849 20.4088L11.375 22.0043C11.5132 22.127 11.6744 22.1884 11.8587 22.1884C12.0429 22.1884 12.2042 22.127 12.3423 22.0043L14.1389 20.4088C14.2655 20.2963 14.3317 20.1557 14.3375 19.9869C14.3433 19.8182 14.277 19.6725 14.1389 19.5497C14.0122 19.4372 13.8538 19.3784 13.6638 19.3733C13.4738 19.3682 13.3097 19.4219 13.1715 19.5344L12.5496 20.0713V15.1162C13.7358 15.2594 14.7233 15.7324 15.5121 16.5352C16.301 17.3381 16.6954 18.2815 16.6954 19.3656C17.49 19.4475 18.1493 19.7517 18.6733 20.2784C18.6793 20.2845 18.6853 20.2906 18.6913 20.2966C21.1466 18.3059 22.716 15.2652 22.716 11.858C22.716 5.8613 17.8547 1 11.858 1C5.86129 1 1 5.8613 1 11.858C1 15.0965 2.41778 18.0038 4.6665 19.9932ZM9.91267 10.8973L9.66759 10.5705C9.66759 10.5705 9.51781 10.339 9.46335 10.2028C9.4225 10.1348 9.34081 10.0803 9.25911 10.0803L9.12295 10.0803C8.33323 10.0803 7.65244 9.4812 7.59797 8.71871C7.52989 7.86091 8.2243 7.13927 9.06849 7.13927L11.1381 7.13927C11.4104 7.13927 11.6555 7.22096 11.8734 7.32989C12.1457 7.49328 12.3635 7.73837 12.4861 8.0243C12.5542 8.20131 12.6086 8.39193 12.6086 8.60978C12.6086 8.71871 12.595 8.81402 12.5678 8.92295C12.5269 9.07272 12.6359 9.20888 12.7856 9.19527L13.5481 9.19527C13.657 9.19527 13.7387 9.11357 13.766 9.00464C13.7932 8.86849 13.7932 8.73233 13.7932 8.59617C13.7932 8.40555 13.7796 8.20131 13.7251 8.01068C13.657 7.69752 13.5209 7.39797 13.3303 7.12565C12.9899 6.62186 12.4588 6.227 11.8734 6.05C11.6419 5.98192 11.3832 5.94107 11.1381 5.94107H9.15018C7.7069 5.94107 6.48147 7.05757 6.44062 8.48724C6.37254 9.9986 7.58436 11.2376 9.0821 11.2377H9.7629C9.92629 11.2649 10.0216 11.0334 9.91267 10.8973ZM17.3061 8.51447C17.2516 7.07119 16.0262 5.95468 14.5965 5.9683L13.9838 5.95468C13.7932 5.95468 13.6979 6.18615 13.8068 6.32231C13.9838 6.52655 14.1336 6.75802 14.2698 7.00311C14.3106 7.07119 14.3923 7.12565 14.474 7.12565H14.6102C15.3999 7.12565 16.0807 7.72475 16.1351 8.48724C16.2032 9.34504 15.5088 10.0667 14.6646 10.0667H12.595C12.3227 10.0667 12.0776 9.98499 11.8597 9.87606C11.5874 9.71267 11.3696 9.46758 11.247 9.18165C11.179 9.00464 11.1245 8.81402 11.1245 8.59617C11.1245 8.48724 11.1381 8.39193 11.1653 8.283C11.2062 8.13323 11.0973 7.99707 10.9475 8.01068H10.185C10.0761 8.01068 9.99437 8.09238 9.96714 8.20131C9.93991 8.33747 9.93991 8.47362 9.93991 8.60978C9.93991 8.80041 9.96714 9.01826 10.008 9.19527C10.0761 9.50843 10.2122 9.80798 10.3892 10.0667C10.7296 10.5705 11.2606 10.9653 11.8461 11.1423C12.0776 11.2104 12.3363 11.2513 12.5814 11.2513L14.651 11.2513C16.1624 11.2649 17.3606 10.0122 17.3061 8.51447Z" fill="#0061FE"/>
</svg>
