<svg width="24" height="24" viewBox="0 0 24 24" fill="none" xmlns="http://www.w3.org/2000/svg">
<path fill-rule="evenodd" clip-rule="evenodd" d="M14.88 9.33333H19.36C19.712 9.33333 20 9.63333 20 10V20C20 21.1 19.136 22 18.08 22H5.92C4.864 22 4 21.1 4 20V4C4 2.9 4.864 2 5.92 2H12.32C12.672 2 12.96 2.3 12.96 2.66667V7.33333C12.96 8.43333 13.824 9.33333 14.88 9.33333ZM15.648 2.13333L19.872 6.53333C19.968 6.63333 20 6.73333 20 6.86667C20 7.13333 19.808 7.33333 19.552 7.33333H16.16C15.456 7.33333 14.88 6.73333 14.88 6V2.46667C14.88 2.2 15.072 2 15.328 2C15.456 2 15.552 2.03333 15.648 2.13333ZM12.9142 10.9994H13.6709C13.7214 10.9994 13.7606 11.0517 13.7617 11.1171C13.7617 11.1302 13.7606 11.1433 13.7572 11.1549L13.6743 11.466L11.1732 20.8903L11.1653 20.9209C11.153 20.9674 11.1182 20.9994 11.0801 20.9994H10.32C10.2707 20.9994 10.2303 20.947 10.2303 20.8831C10.2303 20.87 10.2315 20.8569 10.2348 20.8453L12.829 11.0779C12.8413 11.0314 12.8761 10.9994 12.9142 10.9994ZM16.9299 15.8068C16.9411 15.8184 16.9512 15.8315 16.9602 15.846C17.0218 15.9478 17.0073 16.0946 16.9299 16.1731L14.4747 18.6633C14.459 18.6793 14.44 18.688 14.4198 18.688C14.3705 18.688 14.3301 18.6357 14.3301 18.5717V17.3898C14.3301 17.3535 14.3436 17.3201 14.3649 17.2983L15.6541 15.9899L14.3649 14.6816C14.3424 14.6598 14.3301 14.6264 14.3301 14.59V13.4082C14.3301 13.382 14.3368 13.3573 14.3492 13.3369C14.3794 13.286 14.4355 13.2773 14.4747 13.3166L16.9299 15.8068ZM7.06665 15.8068L9.52181 13.3166C9.56105 13.2773 9.6171 13.286 9.64737 13.3369C9.6597 13.3573 9.66643 13.382 9.66643 13.4082V14.59C9.66643 14.6264 9.65298 14.6598 9.63168 14.6816L8.34244 15.9899L9.63168 17.2983C9.6541 17.3201 9.66643 17.3535 9.66643 17.3898V18.5717C9.66643 18.6357 9.62607 18.688 9.57675 18.688C9.55657 18.688 9.53751 18.6793 9.52181 18.6633L7.06665 16.1731C6.9893 16.0931 6.97584 15.9478 7.03638 15.846C7.04535 15.8315 7.05544 15.8184 7.06665 15.8068Z" fill="#0061FE"/>
</svg>
