<svg width="24" height="24" viewBox="0 0 22 18" fill="none" xmlns="http://www.w3.org/2000/svg" aria-hidden="true" focusable="false"><path d="M18.6936 0H3.3064C1.4821 0 0 1.43088 0 3.18684V14.4132C0 16.1074 1.37869 17.4932 3.11191 17.5905C3.17592 17.5953 3.23993 17.6 3.3064 17.6H18.6936C19.3411 17.6 19.9443 17.4173 20.4564 17.1041C20.5918 17.021 20.7222 16.9285 20.8429 16.8288C21.5495 16.2427 22 15.3789 22 14.4132V3.18922C22 1.43088 20.5179 0 18.6936 0ZM4.84266 2.68378C5.93823 2.68378 6.82699 3.54041 6.82699 4.59636C6.82699 5.65231 5.93823 6.50894 4.84266 6.50894C3.74709 6.50894 2.85833 5.65231 2.85833 4.59636C2.85833 3.54041 3.74709 2.68378 4.84266 2.68378ZM18.6936 15.4786H3.3064C2.96419 15.4786 2.75 15.125 2.91741 14.8379L5.34244 10.6592C5.69696 10.066 6.58572 10.066 6.9427 10.6592L8.60698 13.4403C8.94427 14.0026 9.78872 14.0026 10.126 13.4403L13.5432 7.73812C13.8977 7.14488 14.7865 7.14488 15.1435 7.73812L19.1786 14.686C19.3829 15.0396 19.1171 15.4786 18.6936 15.4786Z" fill="#0061FE"></path></svg>