<svg width="24" height="24" viewBox="0 0 24 24" fill="none" xmlns="http://www.w3.org/2000/svg">
<g clip-path="url(#clip0_1009_2935)">
<path d="M18.8671 4H5.13306C3.50474 4 2.18188 5.24167 2.18188 6.76544V16.5073C2.18188 17.9775 3.41245 19.1801 4.95946 19.2644C5.01659 19.2686 5.07372 19.2727 5.13306 19.2727H18.8671C19.445 19.2727 19.9833 19.1142 20.4404 18.8424C20.5613 18.7703 20.6778 18.69 20.7855 18.6035C21.4161 18.0949 21.8183 17.3453 21.8183 16.5073V6.76749C21.8183 5.24167 20.4954 4 18.8671 4ZM6.50426 6.32891C7.48212 6.32891 8.2754 7.07225 8.2754 7.98858C8.2754 8.9049 7.48212 9.64825 6.50426 9.64825C5.52639 9.64825 4.73312 8.9049 4.73312 7.98858C4.73312 7.07225 5.52639 6.32891 6.50426 6.32891ZM18.8671 17.4318H5.13306C4.82761 17.4318 4.63643 17.1251 4.78585 16.8759L6.95034 13.2497C7.26678 12.7349 8.06005 12.7349 8.37867 13.2497L9.86415 15.663C10.1652 16.1511 10.919 16.1511 11.22 15.663L14.27 10.7149C14.5865 10.2001 15.3797 10.2001 15.6984 10.7149L19.3 16.7441C19.4824 17.0509 19.245 17.4318 18.8671 17.4318Z" fill="#0061FE"/>
<mask id="mask0_1009_2935" style="mask-type:alpha" maskUnits="userSpaceOnUse" x="0" y="5" width="2" height="14">
<path d="M1.09091 5.09082H0V18.1817H1.09091V5.09082Z" fill="black"/>
</mask>
<g mask="url(#mask0_1009_2935)">
<path d="M2.18182 7.27255C2.18182 6.67006 1.6934 6.18164 1.09091 6.18164C0.488417 6.18164 0 6.67006 0 7.27255V15.9998C0 16.6023 0.488417 17.0907 1.09091 17.0907C1.6934 17.0907 2.18182 16.6023 2.18182 15.9998V7.27255Z" fill="#0061FE"/>
</g>
<mask id="mask1_1009_2935" style="mask-type:alpha" maskUnits="userSpaceOnUse" x="22" y="5" width="2" height="14">
<path d="M22.9091 5.09082H24V18.1817H22.9091V5.09082Z" fill="black"/>
</mask>
<g mask="url(#mask1_1009_2935)">
<path d="M21.8184 7.27255C21.8184 6.67006 22.3068 6.18164 22.9093 6.18164C23.5118 6.18164 24.0002 6.67006 24.0002 7.27255V15.9998C24.0002 16.6023 23.5118 17.0907 22.9093 17.0907C22.3068 17.0907 21.8184 16.6023 21.8184 15.9998V7.27255Z" fill="#0061FE"/>
</g>
</g>
<defs>
<clipPath id="clip0_1009_2935">
<rect width="24" height="15.2727" fill="white" transform="translate(0 4)"/>
</clipPath>
</defs>
</svg>
