<svg width="24" height="24" viewBox="0 0 24 24" fill="none" xmlns="http://www.w3.org/2000/svg">
<circle cx="11.8622" cy="19.0197" r="2.4435" fill="#0061FE"/>
<path fill-rule="evenodd" clip-rule="evenodd" d="M22.72 11.1452C22.72 14.7333 20.9799 17.9149 18.2975 19.8923C17.8051 16.7815 15.1113 14.4032 11.862 14.4032C8.61177 14.4032 5.91737 16.7829 5.42602 19.895C2.74164 17.9177 1 14.7348 1 11.1452C1 5.14734 5.86219 0.285156 11.86 0.285156C17.8578 0.285156 22.72 5.14734 22.72 11.1452ZM9.43167 11.0277L9.70343 11.39C9.82421 11.541 9.71852 11.7977 9.53736 11.7675H8.78249C7.12178 11.7675 5.77811 10.3936 5.8536 8.71779C5.89889 7.13256 7.25765 5.89458 8.85797 5.89458L11.0622 5.89458C11.3339 5.89458 11.6208 5.93987 11.8774 6.01536C12.5266 6.21163 13.1154 6.64945 13.4929 7.20805C13.7042 7.51 13.8552 7.84214 13.9307 8.18938C13.9911 8.40075 14.0062 8.62721 14.0062 8.83857C14.0062 8.98954 14.0062 9.14052 13.976 9.29149C13.9458 9.41227 13.8552 9.50285 13.7344 9.50285H12.889C12.7229 9.51795 12.6021 9.36698 12.6474 9.20091C12.6776 9.08013 12.6927 8.97445 12.6927 8.85367C12.6927 8.61211 12.6323 8.40075 12.5568 8.20448C12.421 7.88743 12.1794 7.61568 11.8774 7.43451C11.6359 7.31373 11.3641 7.22315 11.0622 7.22315H8.76739C7.83135 7.22315 7.06139 8.02331 7.13687 8.97445C7.19726 9.8199 7.95213 10.4842 8.82778 10.4842H8.97875C9.06934 10.4842 9.15992 10.5446 9.20521 10.6201C9.2656 10.771 9.43167 11.0277 9.43167 11.0277ZM14.8969 5.92478C16.4822 5.90968 17.8409 7.14766 17.9013 8.74799C17.9617 10.4087 16.6331 11.7977 14.9573 11.7826L12.6625 11.7826C12.3908 11.7826 12.1039 11.7373 11.8473 11.6618C11.1981 11.4655 10.6093 11.0277 10.2318 10.4691C10.0356 10.1822 9.8846 9.85009 9.80911 9.50285C9.76382 9.30659 9.73362 9.06503 9.73362 8.85367C9.73362 8.70269 9.73362 8.55172 9.76382 8.40074C9.79401 8.27997 9.8846 8.18938 10.0054 8.18938H10.8508C11.0169 8.17428 11.1377 8.32526 11.0924 8.49133C11.0622 8.61211 11.0471 8.71779 11.0471 8.83857C11.0471 9.08013 11.1075 9.29149 11.183 9.48776C11.3188 9.8048 11.5604 10.0766 11.8624 10.2577C12.1039 10.3785 12.3757 10.4691 12.6776 10.4691H14.9724C15.9084 10.4691 16.6784 9.66893 16.6029 8.71779C16.5425 7.87234 15.7877 7.20805 14.912 7.20805L14.761 7.20805C14.6705 7.20805 14.5799 7.14766 14.5346 7.07218C14.3836 6.80042 14.2175 6.54377 14.0213 6.31731C13.9005 6.16633 14.0062 5.90968 14.2175 5.90968L14.8969 5.92478Z" fill="#0061FE"/>
</svg>
