<svg width="21" height="21" viewBox="0 0 21 21" fill="none" xmlns="http://www.w3.org/2000/svg">
<path d="M21 10.5C21 11.3143 20.6823 12.0804 20.1072 12.6555L18.8174 13.9454V15.7683C18.8174 17.4483 17.4496 18.8167 15.7703 18.8167H13.9467L12.6576 20.1065C12.0804 20.6823 11.3149 21 10.5 21C9.68506 21 8.91958 20.6823 8.3431 20.1058L7.05532 18.8194H5.23171C4.41677 18.8194 3.65197 18.501 3.07548 17.9265C2.499 17.3487 2.18332 16.5859 2.18332 15.771V13.946L0.893516 12.6576C0.31771 12.0804 0 11.3143 0 10.5C0 9.68574 0.31771 8.91958 0.892839 8.34445L2.18265 7.05532V5.23239C2.18265 3.55171 3.55035 2.184 5.22968 2.184H7.05329L8.34377 0.893516C8.91958 0.31771 9.68506 0 10.5 0C11.3149 0 12.0804 0.31771 12.6569 0.894194L13.9447 2.18197H15.7683C16.5819 2.18197 17.348 2.499 17.9238 3.07413C18.501 3.65129 18.8167 4.4161 18.8167 5.23036V7.05397L20.1065 8.34377C20.6823 8.91958 21 9.68574 21 10.5Z" fill="url(#paint0_linear_9116_19294)"/>
<g clip-path="url(#clip0_9116_19294)">
<path d="M5 12.1529C5 9.29446 7.54897 6.97723 10.6933 6.97723H11.875V6.29354C11.875 6.03989 12.2055 5.9061 12.4128 6.07579L14.5613 7.8336C14.7035 7.94999 14.7035 8.15274 14.5613 8.26913L12.4128 10.0269C12.2055 10.1966 11.875 10.0628 11.875 9.80919V9.12567H10.7759C8.51654 9.12567 6.48053 10.3652 5.62025 12.2645C5.48585 12.5612 5 12.4739 5 12.1529Z" fill="white"/>
<path d="M16 9.84801C16 12.7065 13.451 15.0237 10.3067 15.0237H9.12499V15.7074C9.12499 15.961 8.79452 16.0948 8.58715 15.9251L6.43872 14.1673C6.29647 14.0509 6.29647 13.8482 6.43872 13.7318L8.58715 11.974C8.79454 11.8043 9.12499 11.9381 9.12499 12.1917V12.8753H10.2241C12.4835 12.8753 14.5195 11.6357 15.3797 9.73645C15.5141 9.43973 16 9.52709 16 9.84801Z" fill="white"/>
</g>
<defs>
<linearGradient id="paint0_linear_9116_19294" x1="3.53445" y1="1.21949" x2="16.2411" y2="17.7847" gradientUnits="userSpaceOnUse">
<stop stop-color="#0061FE"/>
<stop offset="1" stop-color="#5F96FF"/>
</linearGradient>
<clipPath id="clip0_9116_19294">
<rect width="11" height="10" fill="white" transform="translate(5 6)"/>
</clipPath>
</defs>
</svg>
