<svg width="25" height="18" viewBox="0 0 25 18" fill="none" xmlns="http://www.w3.org/2000/svg">
<path d="M21.7841 8.24698C22.0199 7.74915 22.1575 7.19891 22.1575 6.61593C22.1575 4.42154 20.3233 2.64637 18.0635 2.64637C16.9695 2.64637 15.9804 3.07215 15.2402 3.74684C14.8144 1.6114 12.8821 0 10.5567 0C7.91685 0 5.78141 2.06993 5.78141 4.63115C5.78141 4.88006 5.82071 5.11588 5.85347 5.3517C2.74857 5.65301 0.318359 8.16183 0.318359 11.2471C0.318359 14.5354 3.06954 17.2014 6.46266 17.2014H20.1072C22.747 17.2014 24.8824 15.1315 24.8824 12.5703C24.8824 10.5855 23.592 8.90858 21.7841 8.24698ZM15.0568 14.745H10.144L11.2117 10.6313C10.5698 10.1859 10.144 9.44571 10.144 8.60726C10.144 7.25132 11.2445 6.15085 12.6004 6.15085C13.9563 6.15085 15.0568 7.25132 15.0568 8.60726C15.0568 9.44571 14.631 10.1925 13.9891 10.6313L15.0568 14.745Z" fill="url(#paint0_linear_9116_19331)"/>
<defs>
<linearGradient id="paint0_linear_9116_19331" x1="4.45267" y1="0.9989" x2="13.4374" y2="17.7254" gradientUnits="userSpaceOnUse">
<stop stop-color="#0061FE"/>
<stop offset="1" stop-color="#5F96FF"/>
</linearGradient>
</defs>
</svg>
