<svg width="27" height="26" viewBox="0 0 27 26" fill="none" xmlns="http://www.w3.org/2000/svg">
<path d="M16.1934 4.75453C16.1934 4.5267 16.3765 4.34766 16.6002 4.34766H25.6815C25.9053 4.34766 26.0884 4.5267 26.0884 4.75453C26.0884 4.97831 25.9053 5.16141 25.6815 5.16141H16.6002C16.3765 5.16141 16.1934 4.97831 16.1934 4.75453Z" fill="#F7F5F2"/>
<path d="M10.8715 22.7272C10.8715 22.951 10.6884 23.1341 10.4646 23.1341H5.92396C5.70018 23.1341 5.51709 22.951 5.51709 22.7272C5.51709 22.5034 5.70018 22.3203 5.92396 22.3203H10.4646C10.6884 22.3204 10.8715 22.5035 10.8715 22.7272Z" fill="#F7F5F2"/>
<path d="M10.8716 19.2428C10.8716 19.4666 10.6885 19.6497 10.4647 19.6497H1.38344C1.15966 19.6497 0.976562 19.4666 0.976562 19.2428C0.976562 19.019 1.15966 18.8359 1.38344 18.8359H10.4647C10.6885 18.8359 10.8716 19.019 10.8716 19.2428Z" fill="#F7F5F2"/>
<path d="M12.9017 5.02752C13.0685 5.54427 12.9343 6.10164 12.5437 6.48002L11.0179 7.96916C10.8755 8.10747 10.8104 8.30686 10.8429 8.50625L11.205 10.6097C11.2946 11.1468 11.0789 11.6798 10.6395 11.9972C10.3913 12.1762 10.0984 12.2698 9.80542 12.2698C9.58164 12.2698 9.35381 12.2169 9.14627 12.107L7.25435 11.1102C7.07941 11.0166 6.86782 11.0207 6.69288 11.1102L4.80501 12.1029C4.32491 12.3552 3.75528 12.3145 3.31182 11.9972C2.87241 11.6758 2.65672 11.1468 2.74625 10.6097L3.10839 8.50625C3.14093 8.30686 3.07585 8.10752 2.93344 7.96916L1.40766 6.48002C1.01708 6.10164 0.878722 5.54421 1.04962 5.02752C1.21642 4.51084 1.65583 4.14055 2.19292 4.06322L4.30457 3.75402C4.49986 3.72552 4.67075 3.60346 4.75618 3.42447L5.70418 1.51216C5.94421 1.02391 6.42841 0.71875 6.97359 0.71875C7.51877 0.71875 8.00297 1.02391 8.2471 1.51216L9.191 3.42447C9.27648 3.60352 9.44732 3.72552 9.64671 3.75402L11.7584 4.06322C12.2954 4.14055 12.7349 4.51084 12.9017 5.02752Z" fill="#F7F5F2"/>
<path d="M16.1934 8.23891C16.1934 8.01513 16.3765 7.83203 16.6002 7.83203H21.1409C21.3647 7.83203 21.5478 8.01513 21.5478 8.23891C21.5478 8.46269 21.3647 8.64578 21.1409 8.64578H16.6002C16.3765 8.64578 16.1934 8.46269 16.1934 8.23891Z" fill="#F7F5F2"/>
<path d="M26.0153 18.0351C26.1862 18.5559 26.0478 19.1133 25.6572 19.4917L24.1314 20.9808C23.989 21.1192 23.924 21.3185 23.9565 21.5138L24.3186 23.6214C24.4082 24.1585 24.1925 24.6874 23.7531 25.0088C23.5049 25.1879 23.2119 25.2815 22.919 25.2815C22.6952 25.2815 22.4673 25.2245 22.2598 25.1146L20.3679 24.1219C20.1929 24.0283 19.9854 24.0283 19.8064 24.1219L17.9226 25.1146C17.4384 25.3669 16.8688 25.3262 16.4253 25.0088C15.9859 24.6874 15.7702 24.1544 15.8638 23.6214L16.2218 21.5138C16.2544 21.3185 16.1893 21.1192 16.0509 20.9808L14.5211 19.4917C14.1305 19.1133 13.9963 18.5559 14.1631 18.0392C14.3299 17.5184 14.7693 17.1522 15.3064 17.0708L17.418 16.7657C17.6133 16.7372 17.7842 16.6151 17.8737 16.4361L18.8177 14.5198C19.0577 14.0356 19.546 13.7305 20.0871 13.7305C20.6323 13.7305 21.1205 14.0356 21.3606 14.5198L22.3046 16.4361C22.3941 16.6152 22.5609 16.7372 22.7603 16.7657L24.8719 17.0708C25.4091 17.1522 25.8484 17.5183 26.0153 18.0351Z" fill="#F7F5F2"/>
</svg>
