<svg width="25" height="26" viewBox="0 0 25 26" fill="none" xmlns="http://www.w3.org/2000/svg">
<path d="M11.625 19.1472H10.75V20.0254C10.75 20.3633 10.5569 20.6702 10.2544 20.8169C9.95104 20.9627 9.59045 20.9215 9.32812 20.7114L4.95312 17.1987C4.74549 17.0316 4.625 16.7794 4.625 16.5127C4.625 16.246 4.74549 15.9938 4.95312 15.8266L9.32812 12.3139C9.59132 12.103 9.94938 12.0626 10.2544 12.2084C10.5569 12.3551 10.75 12.6621 10.75 13V13.8781H11.625V11.2436C11.625 10.7582 12.0164 10.3655 12.5 10.3655H15.125C15.5856 10.3655 15.9624 10.7222 15.9975 11.175L18.0995 9.48723L15.9975 7.79944C15.9625 8.25225 15.5856 8.60899 15.125 8.60899H12.5C12.0164 8.60899 11.625 8.2162 11.625 7.73084V0.75C5.27871 1.20342 0.25 6.51713 0.25 13C0.25 19.4829 5.27871 24.7966 11.625 25.25V19.1472Z" fill="#F7F5F2"/>
<path d="M13.3749 0.75V6.85277H14.2499V5.97454C14.2499 5.63661 14.443 5.32966 14.7455 5.18301C15.048 5.03636 15.4085 5.07749 15.6717 5.28854L20.0467 8.80122C20.2544 8.96844 20.3749 9.22061 20.3749 9.48731C20.3749 9.75401 20.2544 10.0062 20.0467 10.1734L15.6717 13.6861C15.4094 13.8979 15.0505 13.9383 14.7455 13.7916C14.443 13.6449 14.2499 13.3379 14.2499 13V12.1219H13.3749V14.7564C13.3749 15.2417 12.9835 15.6345 12.4999 15.6345H9.87487C9.41427 15.6345 9.03749 15.2778 9.0024 14.825L6.90039 16.5128L9.0024 18.2006C9.0374 17.7478 9.41427 17.391 9.87487 17.391H12.4999C12.9835 17.391 13.3749 17.7838 13.3749 18.2692V25.25C19.7212 24.7966 24.7499 19.4829 24.7499 13C24.7499 6.51713 19.7212 1.20342 13.3749 0.75Z" fill="#F7F5F2"/>
</svg>
