<svg width="25" height="24" viewBox="0 0 25 24" fill="none" xmlns="http://www.w3.org/2000/svg">
<path d="M18.5872 22.5726L19.6348 23.6202C19.8344 23.8197 20.1337 23.9694 20.4829 23.9694C20.7822 23.9694 21.0816 23.8696 21.331 23.6202L24.1247 20.8265C24.3242 20.627 24.4739 20.3277 24.4739 19.9784C24.4739 19.6791 24.3741 19.3798 24.1247 19.1304L17.8389 12.8945L13.3491 17.3843L15.145 19.1803L16.941 17.3843C17.1405 17.1848 17.4897 17.1848 17.6893 17.3843C17.8888 17.5839 17.8888 17.9331 17.6893 18.1326L15.8933 19.9286L17.789 21.8243L20.5328 19.0805C20.7324 18.8809 21.0816 18.8809 21.2811 19.0805C21.4807 19.28 21.4807 19.6292 21.2811 19.8288L18.5872 22.5726Z" fill="#F7F5F2"/>
<path d="M5.31745 9.30237L7.11337 11.0983L11.6032 6.60848L5.36733 0.372645C5.1179 0.123211 4.81858 0.0234375 4.51926 0.0234375C4.21994 0.0234375 3.92062 0.123211 3.67118 0.372645L0.877527 3.1663C0.628094 3.41573 0.52832 3.71505 0.52832 4.01437C0.52832 4.3137 0.628094 4.61302 0.877527 4.86245L1.92515 5.91007L4.66892 3.1663C4.86846 2.96675 5.21767 2.96675 5.41722 3.1663C5.61677 3.36585 5.61677 3.71505 5.41722 3.9146L2.67345 6.65837L4.56914 8.55407L6.36507 6.75814C6.56461 6.5586 6.91382 6.5586 7.11337 6.75814C7.31291 6.95769 7.31291 7.3069 7.11337 7.50645L5.31745 9.30237Z" fill="#F7F5F2"/>
<path d="M20.6298 0.22449C20.3305 -0.0748301 19.8316 -0.0748301 19.5323 0.22449L17.9858 1.77098L22.6752 6.46033L24.2217 4.91384C24.3713 4.81407 24.4711 4.61452 24.4711 4.41498C24.4711 4.21543 24.3713 4.01588 24.2716 3.86622L20.6298 0.22449Z" fill="#F7F5F2"/>
<path d="M2.40283 17.3984L17.2515 2.5498L21.9424 7.2407L7.09373 22.0893L2.40283 17.3984Z" fill="#F7F5F2"/>
<path d="M1.47185 23.9202L6.06143 22.5733L1.87095 18.3828L0.524005 22.9724C0.424231 23.2218 0.524005 23.5211 0.723552 23.7207C0.923099 23.9701 1.22242 24.02 1.47185 23.9202Z" fill="#F7F5F2"/>
</svg>
