<svg width="21" height="18" viewBox="0 0 21 18" fill="none" xmlns="http://www.w3.org/2000/svg">
<path d="M17.9319 2.34575C16.6164 2.34575 15.5462 3.41594 15.5462 4.73148C15.5462 5.25747 15.7226 5.73978 16.0121 6.13462L14.3811 8.30872L12.2497 4.10306C12.7022 3.66862 12.9869 3.06104 12.9869 2.38573C12.9869 1.07019 11.9167 0 10.6012 0C9.28566 0 8.21547 1.07019 8.21547 2.38573C8.21547 3.06104 8.50026 3.66862 8.95271 4.10306L6.82131 8.30872L5.19035 6.13462C5.4798 5.73978 5.65623 5.25747 5.65623 4.73148C5.65623 3.41594 4.58604 2.34575 3.2705 2.34575C1.95496 2.34575 0.884766 3.41594 0.884766 4.73148C0.884766 5.90401 1.73655 6.87627 2.85287 7.07498L3.66157 13.8142C3.70325 14.1633 3.9991 14.4256 4.35052 14.4256H16.8519C17.2033 14.4256 17.4992 14.1633 17.5408 13.8142L18.3495 7.07498C19.4659 6.87627 20.3176 5.90401 20.3176 4.73148C20.3176 3.41594 19.2475 2.34575 17.9319 2.34575Z" fill="url(#paint0_linear_9116_19350)"/>
<path d="M16.8517 17.2006C17.2349 17.2006 17.5457 16.8901 17.5457 16.5065C17.5457 16.1229 17.2349 15.8125 16.8517 15.8125H4.35028C3.96701 15.8125 3.65625 16.1229 3.65625 16.5065C3.65625 16.8901 3.96701 17.2006 4.35028 17.2006H16.8517Z" fill="url(#paint1_linear_9116_19350)"/>
<defs>
<linearGradient id="paint0_linear_9116_19350" x1="4.15546" y1="0.837704" x2="11.9275" y2="14.4868" gradientUnits="userSpaceOnUse">
<stop stop-color="#0061FE"/>
<stop offset="1" stop-color="#5F96FF"/>
</linearGradient>
<linearGradient id="paint1_linear_9116_19350" x1="5.99394" y1="15.8931" x2="6.12649" y2="17.6221" gradientUnits="userSpaceOnUse">
<stop stop-color="#0061FE"/>
<stop offset="1" stop-color="#5F96FF"/>
</linearGradient>
</defs>
</svg>
