<svg width="22" height="22" viewBox="0 0 22 22" fill="none" xmlns="http://www.w3.org/2000/svg">
<path d="M19.232 2.85916C17.7305 1.14766 14.507 0.0976562 10.601 0.0976562C6.69495 0.0976562 3.47145 1.14766 1.96995 2.85916C-0.529047 5.75716 -0.529047 15.4592 1.96995 18.3362C3.47145 20.0477 6.69495 21.0977 10.601 21.0977C14.507 21.0977 17.7305 20.0477 19.232 18.3362C21.731 15.4382 21.731 5.75716 19.232 2.85916ZM10.601 16.3727C10.3933 16.3727 10.1903 16.3111 10.0176 16.1957C9.84493 16.0803 9.71035 15.9163 9.63088 15.7245C9.55141 15.5326 9.53061 15.3215 9.57113 15.1178C9.61164 14.9141 9.71165 14.727 9.85849 14.5802C10.0053 14.4334 10.1924 14.3333 10.3961 14.2928C10.5998 14.2523 10.8109 14.2731 11.0028 14.3526C11.1946 14.4321 11.3586 14.5666 11.474 14.7393C11.5894 14.912 11.651 15.115 11.651 15.3227C11.651 15.6011 11.5403 15.8682 11.3434 16.0651C11.1465 16.262 10.8794 16.3727 10.601 16.3727ZM11.651 11.2487V12.1727C11.651 12.4511 11.5403 12.7182 11.3434 12.9151C11.1465 13.112 10.8794 13.2227 10.601 13.2227C10.3225 13.2227 10.0554 13.112 9.85849 12.9151C9.66158 12.7182 9.55095 12.4511 9.55095 12.1727V11.1962C9.54533 10.7681 9.67828 10.3497 9.92997 10.0034C10.1816 9.65709 10.5386 9.40146 10.9475 9.27466C11.1594 9.21056 11.3494 9.08895 11.4963 8.92333C11.6432 8.75772 11.7414 8.5546 11.7798 8.33656C11.8182 8.11852 11.7954 7.89409 11.7138 7.68824C11.6323 7.48239 11.4953 7.30318 11.3181 7.17053C11.1408 7.03789 10.9302 6.957 10.7097 6.93687C10.4893 6.91674 10.2675 6.95816 10.0692 7.05651C9.87081 7.15487 9.70362 7.30631 9.58618 7.494C9.46875 7.68168 9.40567 7.89826 9.40395 8.11966C9.40395 8.39813 9.29333 8.66521 9.09642 8.86212C8.8995 9.05903 8.63243 9.16966 8.35395 9.16966C8.07548 9.16966 7.8084 9.05903 7.61149 8.86212C7.41458 8.66521 7.30395 8.39813 7.30395 8.11966C7.34295 7.34799 7.65086 6.61433 8.17428 6.04598C8.69769 5.47763 9.40356 5.11046 10.1694 5.00818C10.9353 4.9059 11.7127 5.07497 12.367 5.48605C13.0212 5.89713 13.5108 6.52427 13.751 7.25866C13.9705 8.06601 13.8759 8.92656 13.4862 9.66695C13.0965 10.4073 12.4407 10.9725 11.651 11.2487Z" fill="url(#paint0_linear_9116_19342)"/>
<defs>
<linearGradient id="paint0_linear_9116_19342" x1="3.63192" y1="1.31714" x2="16.3369" y2="17.8885" gradientUnits="userSpaceOnUse">
<stop stop-color="#0061FE"/>
<stop offset="1" stop-color="#5F96FF"/>
</linearGradient>
</defs>
</svg>
