<svg width="200" height="228" viewBox="0 0 200 228" fill="none" xmlns="http://www.w3.org/2000/svg">
<path d="M166.184 21.1771H111.033V10.8678C111.033 8.13365 109.87 5.51145 107.802 3.5781C105.733 1.64474 102.928 0.558594 100.002 0.558594C97.0768 0.558594 94.2712 1.64474 92.2026 3.5781C90.134 5.51145 88.9719 8.13365 88.9719 10.8678V21.1771H33.8204C25.0441 21.1771 16.6273 24.4355 10.4216 30.2356C4.21585 36.0356 0.729492 43.9022 0.729492 52.1048V134.579C0.729492 142.781 4.21585 150.648 10.4216 156.448C16.6273 162.248 25.0441 165.506 33.8204 165.506H51.5792L34.3719 213.754C33.8177 215.07 33.5592 216.478 33.6124 217.892C33.6656 219.305 34.0295 220.693 34.6813 221.97C35.3331 223.246 36.2589 224.383 37.4012 225.311C38.5434 226.239 39.8777 226.937 41.321 227.362C42.4927 227.503 43.679 227.503 44.8507 227.362C47.256 227.479 49.6364 226.857 51.6281 225.591C53.6198 224.326 55.1135 222.485 55.881 220.351L74.8531 165.506H125.151L144.675 220.351C145.415 222.399 146.825 224.178 148.705 225.436C150.585 226.693 152.841 227.367 155.154 227.362C156.349 227.334 157.536 227.16 158.683 226.846C160.111 226.47 161.443 225.828 162.599 224.959C163.755 224.091 164.712 223.013 165.413 221.791C166.113 220.568 166.542 219.226 166.675 217.846C166.807 216.465 166.64 215.073 166.184 213.754L148.425 165.506H166.184C174.96 165.506 183.377 162.248 189.583 156.448C195.789 150.648 199.275 142.781 199.275 134.579V52.1048C199.275 43.9022 195.789 36.0356 189.583 30.2356C183.377 24.4355 174.96 21.1771 166.184 21.1771ZM55.881 62.414H100.002C102.928 62.414 105.733 63.5001 107.802 65.4335C109.87 67.3669 111.033 69.989 111.033 72.7232C111.033 75.4574 109.87 78.0796 107.802 80.0129C105.733 81.9463 102.928 83.0325 100.002 83.0325H55.881C52.9556 83.0325 50.15 81.9463 48.0814 80.0129C46.0128 78.0796 44.8507 75.4574 44.8507 72.7232C44.8507 69.989 46.0128 67.3669 48.0814 65.4335C50.15 63.5001 52.9556 62.414 55.881 62.414ZM144.123 124.269H55.881C52.9556 124.269 50.15 123.183 48.0814 121.25C46.0128 119.317 44.8507 116.694 44.8507 113.96C44.8507 111.226 46.0128 108.604 48.0814 106.67C50.15 104.737 52.9556 103.651 55.881 103.651H144.123C147.049 103.651 149.854 104.737 151.923 106.67C153.992 108.604 155.154 111.226 155.154 113.96C155.154 116.694 153.992 119.317 151.923 121.25C149.854 123.183 147.049 124.269 144.123 124.269Z" fill="url(#paint0_linear_13103_7)"/>
<defs>
<linearGradient id="paint0_linear_13103_7" x1="34.1461" y1="13.7354" x2="233.186" y2="314.366" gradientUnits="userSpaceOnUse">
<stop stop-color="#0061FF"/>
<stop offset="1" stop-color="#5F96FF"/>
</linearGradient>
</defs>
</svg>
