<svg width="25" height="26" viewBox="0 0 25 26" fill="none" xmlns="http://www.w3.org/2000/svg">
<path d="M25 12.5C25 5.59644 19.4035 0 12.5 0C5.59647 0 0 5.59644 0 12.5C0 19.4036 5.59647 25 12.5 25C19.4035 25 25 19.4036 25 12.5Z" fill="#E9F1FF"/>
<path d="M15.7807 6.67035C16.2973 6.76819 16.754 6.93754 17.1621 7.22552C17.8378 7.69956 18.2389 8.34462 18.37 9.14955C18.4071 9.37218 18.4147 9.60357 18.4176 9.8305C18.421 10.0057 18.2767 10.1103 18.1152 10.0733C17.9992 10.0477 17.9337 9.95745 17.9255 9.82488C17.9089 9.5889 17.9061 9.35083 17.8575 9.12137C17.6701 8.23063 17.1229 7.63631 16.2706 7.31381C16.0457 7.22916 15.8044 7.19166 15.5701 7.13392C15.5474 7.12918 15.5177 7.14247 15.4925 7.14683C15.5015 7.17159 15.5059 7.20081 15.5194 7.22111C15.6819 7.44004 15.849 7.65914 16.0116 7.88034C16.0724 7.96162 16.0764 8.04694 16.0234 8.13423C15.9773 8.21023 15.9018 8.25457 15.8131 8.23383C15.754 8.21993 15.6859 8.1858 15.6497 8.14063C15.3651 7.77037 15.0875 7.39785 14.8099 7.02319C14.7151 6.89447 14.7434 6.76217 14.8852 6.68006C15.2764 6.45137 15.6699 6.22267 16.0635 5.99403C16.1869 5.92295 16.3166 5.95532 16.3819 6.06578C16.4472 6.17855 16.4122 6.30181 16.2886 6.3751C16.1307 6.46835 15.966 6.5616 15.7807 6.67035Z" fill="#0061FE"/>
<path d="M9.21049 18.5697C8.69337 18.4753 8.23538 18.3092 7.82522 18.0239C7.14619 17.5545 6.7407 16.9121 6.60397 16.1082C6.56527 15.8858 6.55608 15.6544 6.55157 15.4276C6.54701 15.2523 6.69054 15.1468 6.85233 15.1828C6.96853 15.2076 7.03456 15.2973 7.04369 15.4298C7.06195 15.6657 7.06652 15.9038 7.11663 16.1329C7.31027 17.0222 7.86168 17.6129 8.71608 17.9296C8.94163 18.0127 9.1832 18.0486 9.41788 18.1048C9.44065 18.1092 9.47027 18.0958 9.49538 18.0913C9.48619 18.0665 9.48168 18.0374 9.46799 18.0172C9.30391 17.7993 9.13532 17.5815 8.9713 17.3614C8.90978 17.2805 8.90516 17.1952 8.95755 17.1075C9.00315 17.0313 9.07837 16.9863 9.16717 17.0065C9.22652 17.02 9.29483 17.0537 9.33125 17.0985C9.61837 17.4669 9.89864 17.8375 10.1789 18.2103C10.2745 18.3384 10.2472 18.4709 10.1059 18.5539C9.71636 18.7853 9.3244 19.0166 8.93255 19.248C8.80951 19.3199 8.67962 19.2884 8.61358 19.1783C8.5475 19.066 8.58163 18.9424 8.70473 18.8684C8.8619 18.774 9.02598 18.6798 9.21049 18.5697Z" fill="#0061FE"/>
<path d="M13.8443 6.67874V11.0718H12.6071C11.8234 11.0718 11.1899 11.6984 11.1899 12.4688V14.2745H6.13859C5.35485 14.2745 4.72147 13.648 4.72147 12.8776V6.67874C4.72147 5.90612 5.35485 5.28174 6.13859 5.28174H12.4271C13.2086 5.28174 13.8443 5.90612 13.8443 6.67874Z" fill="#0061FE"/>
<g filter="url(#filter0_d_16_34)">
<path d="M8.06609 9.13688C8.49668 9.4087 8.92043 9.67594 9.35108 9.94776C9.22353 10.0286 9.105 10.1027 8.98652 10.1791C8.69266 10.3632 8.39869 10.5474 8.10473 10.7338C8.07973 10.7495 8.05918 10.7563 8.02956 10.7383C7.62174 10.4778 7.21163 10.2195 6.8038 9.95901C6.79695 9.95444 6.79011 9.94771 6.77652 9.93878C7.20483 9.66927 7.62853 9.40203 8.06369 9.13021C7.6331 8.86291 7.2094 8.59787 6.7856 8.3351C6.78331 8.31497 6.79924 8.31271 6.80837 8.30592C7.21619 8.04993 7.62174 7.79383 8.02956 7.53778C8.05234 7.52433 8.06837 7.5176 8.09337 7.53557C8.50353 7.79383 8.91364 8.05214 9.32369 8.31039C9.3306 8.31491 9.33744 8.32164 9.3488 8.33063C8.92043 8.59787 8.49668 8.86517 8.06609 9.13688Z" fill="#E9F1FF"/>
<path d="M10.6262 11.0162C10.4804 11.1083 10.3415 11.1959 10.2002 11.2856C9.92675 11.4586 9.65333 11.6294 9.38219 11.8023C9.35485 11.8203 9.33659 11.8203 9.30931 11.8023C8.90371 11.5462 8.49594 11.2902 8.09034 11.0342C8.08126 11.0274 8.07436 11.0207 8.063 11.0117C8.41616 10.7893 8.76931 10.567 9.12018 10.3469C9.18404 10.3065 9.25007 10.266 9.31154 10.2257C9.33431 10.2099 9.35262 10.2077 9.37762 10.2233C9.79001 10.4839 10.2025 10.7444 10.6149 11.005C10.6149 11.005 10.6171 11.0072 10.6262 11.0162Z" fill="#E9F1FF"/>
<path d="M9.35374 9.93661C9.55885 9.80867 9.75478 9.68293 9.95298 9.55935C10.1671 9.42457 10.379 9.28984 10.5932 9.15732C10.6137 9.14381 10.6274 9.13036 10.6571 9.14828C11.0694 9.40885 11.4818 9.66716 11.8965 9.92767C11.9033 9.9322 11.9079 9.93661 11.9192 9.94565C11.86 9.98381 11.8053 10.0197 11.7484 10.0535C11.3929 10.278 11.0353 10.5004 10.6798 10.725C10.6479 10.7452 10.6251 10.7497 10.5909 10.7273C10.1809 10.4644 9.77076 10.2039 9.35374 9.93661Z" fill="#E9F1FF"/>
<path d="M9.35374 8.32617C9.53146 8.21389 9.70233 8.10387 9.87326 7.996C10.1124 7.8433 10.354 7.6928 10.5932 7.54225C10.616 7.52885 10.632 7.51534 10.6616 7.53332C11.0717 7.79389 11.4841 8.05214 11.8965 8.3104C11.9033 8.31492 11.9079 8.31944 11.917 8.32617C11.8578 8.36433 11.8008 8.40255 11.7439 8.43845C11.3884 8.66075 11.033 8.88315 10.6775 9.10771C10.6593 9.11896 10.6456 9.13468 10.6183 9.11896C10.2014 8.85398 9.77983 8.59347 9.35374 8.32617Z" fill="#E9F1FF"/>
</g>
<path d="M20.2259 12.2927V18.4915C20.2259 19.2642 19.5903 19.8907 18.8088 19.8907H12.5203C11.7365 19.8907 11.1031 19.2642 11.1031 18.4915V14.0985H12.3403C13.1218 14.0985 13.7575 13.4718 13.7575 12.7014V10.8958H18.8088C19.5903 10.8958 20.2259 11.5223 20.2259 12.2927Z" fill="#0061FE"/>
<g filter="url(#filter1_d_16_34)">
<path d="M15.73 13.1451C14.4678 13.1652 13.3831 14.2096 13.3831 15.51C13.3855 16.8666 14.5498 17.8952 15.796 17.8773C17.0743 17.8571 18.1634 16.815 18.1611 15.5146C18.1634 14.1939 17.0583 13.1248 15.73 13.1451ZM15.8143 17.7516C14.5521 17.774 13.5245 16.7655 13.5085 15.5078C13.4949 14.3287 14.5202 13.3023 15.7049 13.2686C16.9444 13.2326 18.0403 14.2568 18.038 15.5168C18.038 16.6487 17.0902 17.7313 15.8143 17.7516Z" fill="#E9F1FF"/>
<path d="M17.1448 13.9897C17.0583 14.0369 16.9785 14.0684 16.9147 14.12C16.7849 14.2256 16.7598 14.3783 16.8351 14.5535C16.8692 14.6366 16.9102 14.7175 16.9603 14.7916C17.1586 15.0812 17.1949 15.3935 17.0994 15.7259C17.0059 16.0493 16.9056 16.3727 16.8077 16.6961C16.8054 16.7074 16.7985 16.7163 16.7826 16.7455C16.532 16.0066 16.2859 15.2857 16.0376 14.5535C16.1059 14.549 16.1606 14.5467 16.2176 14.54C16.2472 14.5355 16.2836 14.5333 16.2996 14.5153C16.3201 14.4928 16.3269 14.4569 16.3292 14.4255C16.3292 14.4186 16.2928 14.4007 16.2722 14.4007C15.9305 14.4007 15.5864 14.403 15.2447 14.403C15.2332 14.403 15.2196 14.403 15.2082 14.4052C15.174 14.4142 15.1125 14.3985 15.1194 14.4547C15.1216 14.4838 15.1717 14.5063 15.1991 14.531C15.2014 14.5333 15.2082 14.5333 15.2127 14.5333C15.3609 14.5197 15.4178 14.6097 15.4589 14.7309C15.5363 14.9488 15.6229 15.1644 15.7027 15.38C15.7117 15.4047 15.714 15.4384 15.7072 15.4631C15.566 15.8809 15.4223 16.2964 15.2811 16.7141C15.2788 16.7231 15.272 16.7299 15.256 16.759C15.0054 16.0201 14.7594 15.2991 14.5087 14.5669C14.5839 14.5557 14.6431 14.549 14.7001 14.5378C14.7502 14.5266 14.8186 14.5221 14.8141 14.4592C14.8095 14.3918 14.7411 14.3985 14.691 14.3985C14.5224 14.4007 14.3561 14.4052 14.1874 14.4097C14.1488 14.4097 14.1099 14.4097 14.0667 14.3985C14.3538 13.974 14.7366 13.682 15.2401 13.5541C15.951 13.3699 16.5798 13.5405 17.1448 13.9897Z" fill="#E9F1FF"/>
<path d="M15.8233 15.6975C16.0329 16.2703 16.2425 16.843 16.459 17.4337C16.3382 17.4606 16.2265 17.4898 16.1149 17.5123C15.8392 17.5662 15.5658 17.5505 15.2947 17.4898C15.183 17.4651 15.1807 17.4584 15.2172 17.3551C15.4018 16.825 15.5863 16.295 15.7732 15.765C15.78 15.7425 15.7914 15.7223 15.8028 15.6998C15.8073 15.6998 15.8142 15.6975 15.8233 15.6975Z" fill="#E9F1FF"/>
<path d="M13.9179 14.6934C14.2415 15.5671 14.565 16.443 14.8885 17.3166C14.8817 17.3211 14.8726 17.3256 14.8658 17.3301C14.426 17.1123 14.1002 16.7798 13.902 16.3352C13.6582 15.7916 13.6833 15.2414 13.8905 14.6956C13.8974 14.6956 13.9066 14.6934 13.9179 14.6934Z" fill="#E9F1FF"/>
<path d="M17.5944 14.5603C17.8336 15.0477 17.8883 15.5553 17.7379 16.0786C17.5898 16.5929 17.2731 16.986 16.7968 17.2532C16.8038 17.2308 16.8083 17.2084 16.8152 17.1881C17.0248 16.5861 17.2344 15.9843 17.4417 15.3824C17.5214 15.151 17.5784 14.9152 17.5647 14.6682C17.5625 14.6322 17.5693 14.5963 17.5716 14.5603C17.5784 14.5626 17.5876 14.5603 17.5944 14.5603Z" fill="#E9F1FF"/>
</g>
<defs>
<filter id="filter0_d_16_34" x="2.77652" y="7.52466" width="13.1427" height="12.2913" filterUnits="userSpaceOnUse" color-interpolation-filters="sRGB">
<feFlood flood-opacity="0" result="BackgroundImageFix"/>
<feColorMatrix in="SourceAlpha" type="matrix" values="0 0 0 0 0 0 0 0 0 0 0 0 0 0 0 0 0 0 127 0" result="hardAlpha"/>
<feOffset dy="4"/>
<feGaussianBlur stdDeviation="2"/>
<feComposite in2="hardAlpha" operator="out"/>
<feColorMatrix type="matrix" values="0 0 0 0 0 0 0 0 0 0 0 0 0 0 0 0 0 0 0.07 0"/>
<feBlend mode="normal" in2="BackgroundImageFix" result="effect1_dropShadow_16_34"/>
<feBlend mode="normal" in="SourceGraphic" in2="effect1_dropShadow_16_34" result="shape"/>
</filter>
<filter id="filter1_d_16_34" x="9.38315" y="13.1448" width="12.7779" height="12.7327" filterUnits="userSpaceOnUse" color-interpolation-filters="sRGB">
<feFlood flood-opacity="0" result="BackgroundImageFix"/>
<feColorMatrix in="SourceAlpha" type="matrix" values="0 0 0 0 0 0 0 0 0 0 0 0 0 0 0 0 0 0 127 0" result="hardAlpha"/>
<feOffset dy="4"/>
<feGaussianBlur stdDeviation="2"/>
<feComposite in2="hardAlpha" operator="out"/>
<feColorMatrix type="matrix" values="0 0 0 0 0 0 0 0 0 0 0 0 0 0 0 0 0 0 0.07 0"/>
<feBlend mode="normal" in2="BackgroundImageFix" result="effect1_dropShadow_16_34"/>
<feBlend mode="normal" in="SourceGraphic" in2="effect1_dropShadow_16_34" result="shape"/>
</filter>
</defs>
</svg>
