<svg xmlns="http://www.w3.org/2000/svg" width="120" height="48" viewBox="0 0 120 48" fill="none">
  <circle cx="22.5836" cy="20.5836" r="20.5836" fill="white"/>
  <g filter="url(#filter0_d_682_23693)">
    <g filter="url(#filter1_d_682_23693)">
      <path d="M27.9433 10.2322C28.8346 10.401 29.6228 10.6932 30.327 11.1902C31.493 12.0081 32.1851 13.1212 32.4113 14.5102C32.4754 14.8943 32.4883 15.2937 32.4936 15.6852C32.4993 15.9875 32.2503 16.168 31.9716 16.1041C31.7714 16.06 31.6584 15.9043 31.6443 15.6755C31.6156 15.2683 31.6108 14.8576 31.527 14.4616C31.2036 12.9246 30.2593 11.899 28.7887 11.3424C28.4005 11.1964 27.9842 11.1317 27.58 11.032C27.5407 11.0239 27.4895 11.0468 27.4461 11.0543C27.4615 11.0971 27.469 11.1475 27.4923 11.1825C27.7729 11.5603 28.0612 11.9384 28.3416 12.32C28.4467 12.4603 28.4536 12.6075 28.362 12.7582C28.2825 12.8893 28.1522 12.9659 27.9992 12.9301C27.8971 12.9061 27.7796 12.8471 27.7172 12.7692C27.2262 12.1303 26.7471 11.4875 26.2681 10.841C26.1045 10.6189 26.1533 10.3906 26.398 10.2489C27.073 9.85424 27.7521 9.45965 28.4312 9.06507C28.6443 8.94249 28.868 8.99826 28.9807 9.18894C29.0934 9.38349 29.0329 9.59625 28.8197 9.72269C28.5473 9.88362 28.263 10.0445 27.9433 10.2322Z" fill="#007FE6"/>
    </g>
  </g>
  <g filter="url(#filter2_d_682_23693)">
    <g filter="url(#filter3_d_682_23693)">
      <path d="M16.6035 30.7724C15.7111 30.6097 14.9208 30.323 14.2131 29.8307C13.0414 29.0207 12.3417 27.9123 12.1058 26.5249C12.039 26.1411 12.0232 25.7419 12.0153 25.3506C12.0075 25.0482 12.2552 24.8661 12.5343 24.9281C12.7349 24.9708 12.8488 25.1258 12.8645 25.3544C12.896 25.7613 12.9039 26.1722 12.9904 26.5676C13.3245 28.1022 14.276 29.1215 15.7503 29.6679C16.1396 29.8113 16.5564 29.8733 16.9613 29.9702C17.0006 29.978 17.0518 29.9548 17.0951 29.9469C17.0793 29.9043 17.0714 29.8539 17.0478 29.8191C16.7647 29.4431 16.4738 29.0672 16.1907 28.6874C16.0846 28.5479 16.0766 28.4007 16.167 28.2495C16.2457 28.1178 16.3755 28.0402 16.5288 28.0751C16.6311 28.0983 16.749 28.1564 16.8119 28.2339C17.3073 28.8696 17.791 29.5091 18.2745 30.1524C18.4395 30.3733 18.3924 30.602 18.1486 30.7453C17.4764 31.1446 16.8001 31.5437 16.1239 31.9429C15.9116 32.067 15.6874 32.0126 15.5735 31.8227C15.4594 31.6289 15.5183 31.4157 15.7307 31.2879C16.002 31.1251 16.2851 30.9624 16.6035 30.7724Z" fill="#007FE6"/>
    </g>
  </g>
  <g filter="url(#filter4_d_682_23693)">
    <path d="M24.6032 10.2524V17.8329H22.4684C21.1159 17.8329 20.0229 18.9143 20.0229 20.2436V23.3596H11.3064C9.95403 23.3596 8.86108 22.2783 8.86108 20.949V10.2524C8.86108 8.9192 9.95403 7.8418 11.3064 7.8418H22.1577C23.5063 7.8418 24.6032 8.9192 24.6032 10.2524Z" fill="#007FE6"/>
  </g>
  <g filter="url(#filter5_d_682_23693)">
    <path d="M14.6274 14.4989C15.3704 14.9679 16.1016 15.4291 16.8447 15.898C16.6246 16.0375 16.4201 16.1654 16.2157 16.2972C15.7086 16.615 15.2013 16.9328 14.6941 17.2545C14.6509 17.2815 14.6154 17.2933 14.5644 17.2622C13.8606 16.8126 13.153 16.3669 12.4492 15.9175C12.4374 15.9096 12.4256 15.8979 12.4021 15.8825C13.1412 15.4175 13.8724 14.9563 14.6233 14.4873C13.8802 14.026 13.1491 13.5687 12.4178 13.1153C12.4139 13.0805 12.4413 13.0767 12.4571 13.0649C13.1608 12.6232 13.8606 12.1813 14.5644 11.7394C14.6037 11.7163 14.6313 11.7046 14.6745 11.7356C15.3822 12.1813 16.0899 12.627 16.7975 13.0727C16.8094 13.0804 16.8212 13.0921 16.8408 13.1076C16.1016 13.5687 15.3704 14.03 14.6274 14.4989Z" fill="#F7F5F2"/>
    <path d="M19.0431 17.7401C18.7915 17.899 18.5518 18.0502 18.3079 18.2051C17.8361 18.5036 17.3643 18.7982 16.8964 19.0966C16.8493 19.1276 16.8178 19.1276 16.7706 19.0966C16.0708 18.6547 15.3671 18.213 14.6673 17.7711C14.6516 17.7595 14.6397 17.7479 14.6201 17.7323C15.2294 17.3487 15.8389 16.965 16.4443 16.5851C16.5545 16.5154 16.6684 16.4456 16.7746 16.3759C16.8138 16.3488 16.8454 16.3449 16.8886 16.3719C17.6002 16.8216 18.3119 17.2711 19.0235 17.7208C19.0235 17.7208 19.0274 17.7246 19.0431 17.7401Z" fill="#F7F5F2"/>
    <path d="M16.8474 15.883C17.2013 15.6622 17.5394 15.4453 17.8814 15.232C18.2509 14.9995 18.6166 14.7669 18.9862 14.5383C19.0216 14.515 19.0452 14.4918 19.0964 14.5227C19.8079 14.9723 20.5195 15.4181 21.2351 15.8676C21.2469 15.8754 21.2547 15.883 21.2743 15.8986C21.1721 15.9645 21.0778 16.0264 20.9795 16.0847C20.3662 16.4722 19.749 16.8559 19.1356 17.2435C19.0805 17.2784 19.0412 17.2861 18.9822 17.2473C18.2746 16.7938 17.567 16.3443 16.8474 15.883Z" fill="#F7F5F2"/>
    <path d="M16.8474 13.0999C17.1541 12.9061 17.4489 12.7163 17.7438 12.5302C18.1566 12.2666 18.5734 12.0069 18.9862 11.7472C19.0255 11.724 19.0531 11.7007 19.1042 11.7318C19.8118 12.1813 20.5234 12.6271 21.2351 13.0727C21.2469 13.0804 21.2547 13.0883 21.2704 13.0999C21.1682 13.1657 21.07 13.2317 20.9717 13.2936C20.3583 13.6772 19.7451 14.061 19.1317 14.4485C19.1003 14.4679 19.0766 14.495 19.0295 14.4679C18.31 14.0106 17.5826 13.5611 16.8474 13.0999Z" fill="#F7F5F2"/>
  </g>
  <g filter="url(#filter6_d_682_23693)">
    <path d="M35.6133 19.9418V30.6384C35.6133 31.9717 34.5164 33.0529 33.1679 33.0529H22.3166C20.9641 33.0529 19.8711 31.9717 19.8711 30.6384V23.0578H22.0059C23.3545 23.0578 24.4514 21.9765 24.4514 20.6472V17.5312H33.1679C34.5164 17.5312 35.6133 18.6125 35.6133 19.9418Z" fill="#007FE6"/>
  </g>
  <g filter="url(#filter7_d_682_23693)">
    <path d="M27.8544 21.4067C25.6762 21.4416 23.8047 23.2437 23.8047 25.4877C23.8088 27.8286 25.8178 29.6035 27.9683 29.5726C30.174 29.5377 32.0533 27.7395 32.0494 25.4955C32.0533 23.2166 30.1465 21.3718 27.8544 21.4067ZM27.9998 29.3556C25.8217 29.3943 24.0485 27.6542 24.021 25.4838C23.9975 23.4491 25.7667 21.678 27.8111 21.6199C29.9499 21.5579 31.841 23.3252 31.8371 25.4994C31.8371 27.4526 30.2014 29.3206 27.9998 29.3556Z" fill="#F7F5F2"/>
    <path d="M30.2912 22.8642C30.1419 22.9456 30.0042 22.9999 29.8942 23.089C29.6701 23.2712 29.6268 23.5347 29.7566 23.8371C29.8155 23.9804 29.8864 24.12 29.9728 24.2479C30.3149 24.7477 30.3777 25.2865 30.2127 25.8601C30.0515 26.4182 29.8784 26.9762 29.7094 27.5343C29.7055 27.5537 29.6936 27.5692 29.6662 27.6196C29.2337 26.3445 28.809 25.1005 28.3805 23.8371C28.4985 23.8292 28.5929 23.8254 28.6911 23.8138C28.7423 23.806 28.8051 23.8022 28.8327 23.7712C28.8681 23.7324 28.8798 23.6704 28.8838 23.6162C28.8838 23.6044 28.8209 23.5735 28.7855 23.5735C28.1958 23.5735 27.602 23.5774 27.0124 23.5774C26.9926 23.5774 26.9691 23.5774 26.9494 23.5812C26.8904 23.5967 26.7843 23.5697 26.7961 23.6665C26.8 23.7169 26.8865 23.7557 26.9337 23.7984C26.9376 23.8022 26.9494 23.8022 26.9572 23.8022C27.2128 23.7788 27.3111 23.934 27.382 24.1432C27.5156 24.5192 27.665 24.8912 27.8027 25.2633C27.8183 25.3059 27.8223 25.364 27.8105 25.4066C27.5667 26.1276 27.319 26.8445 27.0752 27.5653C27.0713 27.5808 27.0595 27.5925 27.032 27.6429C26.5995 26.3678 26.175 25.1237 25.7424 23.8603C25.8721 23.841 25.9743 23.8292 26.0726 23.8099C26.1591 23.7906 26.2772 23.7828 26.2693 23.6743C26.2615 23.5581 26.1434 23.5697 26.0569 23.5697C25.766 23.5735 25.479 23.5812 25.188 23.589C25.1212 23.589 25.0543 23.589 24.9797 23.5697C25.475 22.8371 26.1356 22.3333 27.0044 22.1125C28.2311 21.7946 29.3162 22.0891 30.2912 22.8642Z" fill="#F7F5F2"/>
    <path d="M28.0162 25.8086C28.3779 26.7969 28.7397 27.7851 29.1132 28.8045C28.9047 28.851 28.712 28.9014 28.5194 28.9402C28.0437 29.0332 27.572 29.006 27.1041 28.9014C26.9114 28.8587 26.9074 28.8471 26.9704 28.6689C27.2889 27.7542 27.6073 26.8396 27.9297 25.925C27.9415 25.8861 27.9611 25.8513 27.9809 25.8125C27.9888 25.8125 28.0005 25.8086 28.0162 25.8086Z" fill="#F7F5F2"/>
    <path d="M24.7246 24.082C25.2829 25.5897 25.8412 27.1012 26.3995 28.6086C26.3876 28.6165 26.372 28.6242 26.3602 28.632C25.6013 28.256 25.0391 27.6824 24.6971 26.9152C24.2764 25.9772 24.3196 25.0277 24.6774 24.086C24.6893 24.086 24.705 24.082 24.7246 24.082Z" fill="#F7F5F2"/>
    <path d="M31.071 23.8516C31.4838 24.6926 31.5781 25.5686 31.3186 26.4715C31.0632 27.359 30.5166 28.0373 29.6948 28.4985C29.7068 28.4597 29.7146 28.4209 29.7264 28.386C30.0881 27.3473 30.4498 26.3088 30.8075 25.2701C30.9451 24.8709 31.0434 24.464 31.0199 24.0377C31.0159 23.9756 31.0277 23.9137 31.0316 23.8516C31.0434 23.8555 31.0592 23.8516 31.071 23.8516Z" fill="#F7F5F2"/>
  </g>
  <path d="M54.6451 6.86133V17.0796H52.969V6.86133H54.6451ZM60.9329 8.84618C61.57 8.84618 62.1385 8.9785 62.6384 9.24315C63.1481 9.50779 63.545 9.89986 63.8293 10.4194C64.1135 10.9388 64.2557 11.5662 64.2557 12.3013V17.0796H62.5943V12.5512C62.5943 11.8259 62.4129 11.2721 62.0503 10.8898C61.6876 10.4978 61.1926 10.3017 60.5653 10.3017C59.938 10.3017 59.4381 10.4978 59.0657 10.8898C58.703 11.2721 58.5217 11.8259 58.5217 12.5512V17.0796H56.8456V8.9785H58.5217V9.90476C58.7961 9.5715 59.1441 9.31176 59.5656 9.12553C59.9968 8.93929 60.4526 8.84618 60.9329 8.84618ZM68.3491 10.3458V14.8301C68.3491 15.134 68.4177 15.3545 68.5549 15.4917C68.7019 15.6192 68.947 15.6829 69.29 15.6829H70.3192V17.0796H68.996C68.2412 17.0796 67.6629 16.9032 67.2611 16.5503C66.8592 16.1975 66.6583 15.6241 66.6583 14.8301V10.3458H65.7026V8.9785H66.6583V6.96425H68.3491V8.9785H70.3192V10.3458H68.3491ZM79.2889 12.8306C79.2889 13.1344 79.2693 13.4089 79.23 13.6539H73.0403C73.0893 14.3008 73.3294 14.8203 73.7607 15.2124C74.192 15.6045 74.7213 15.8005 75.3486 15.8005C76.2503 15.8005 76.8874 15.4231 77.2599 14.6684H79.0683C78.8233 15.4133 78.3773 16.0259 77.7304 16.5062C77.0933 16.9767 76.2993 17.2119 75.3486 17.2119C74.5742 17.2119 73.8783 17.0404 73.2608 16.6974C72.6531 16.3445 72.1728 15.8544 71.82 15.2271C71.4769 14.59 71.3054 13.8549 71.3054 13.0217C71.3054 12.1886 71.472 11.4583 71.8053 10.831C72.1483 10.1939 72.6237 9.70383 73.2314 9.36077C73.8489 9.01771 74.5546 8.84618 75.3486 8.84618C76.1131 8.84618 76.7943 9.01281 77.3922 9.34606C77.9901 9.67932 78.4557 10.1498 78.789 10.7575C79.1222 11.3554 79.2889 12.0464 79.2889 12.8306ZM77.5393 12.3013C77.5295 11.6838 77.3089 11.1888 76.8776 10.8163C76.4464 10.4439 75.9122 10.2576 75.2751 10.2576C74.6968 10.2576 74.2018 10.4439 73.7901 10.8163C73.3784 11.179 73.1334 11.674 73.055 12.3013H77.5393ZM84.2023 8.84618C84.8296 8.84618 85.3834 8.9736 85.8637 9.22844C86.3537 9.47349 86.736 9.78224 87.0105 10.1547V8.9785H88.7013V17.2119C88.7013 17.9569 88.5444 18.6185 88.2308 19.1968C87.9171 19.7849 87.4613 20.2456 86.8634 20.5788C86.2753 20.9121 85.5696 21.0787 84.7463 21.0787C83.6485 21.0787 82.7369 20.819 82.0116 20.2995C81.2863 19.7898 80.8746 19.0939 80.7766 18.2117H82.438C82.5654 18.6332 82.8349 18.9714 83.2466 19.2262C83.6681 19.4908 84.168 19.6232 84.7463 19.6232C85.4226 19.6232 85.9666 19.4173 86.3783 19.0057C86.7997 18.594 87.0105 17.9961 87.0105 17.2119V15.8593C86.7262 16.2416 86.339 16.565 85.849 16.8297C85.3687 17.0845 84.8198 17.2119 84.2023 17.2119C83.4965 17.2119 82.8496 17.0355 82.2615 16.6826C81.6832 16.32 81.2225 15.8201 80.8795 15.183C80.5462 14.5361 80.3796 13.8058 80.3796 12.9923C80.3796 12.1788 80.5462 11.4583 80.8795 10.831C81.2225 10.2037 81.6832 9.71853 82.2615 9.37547C82.8496 9.02261 83.4965 8.84618 84.2023 8.84618ZM87.0105 13.0217C87.0105 12.463 86.8928 11.9778 86.6576 11.5662C86.4322 11.1545 86.1332 10.8408 85.7607 10.6252C85.3883 10.4096 84.9864 10.3017 84.5551 10.3017C84.1239 10.3017 83.722 10.4096 83.3495 10.6252C82.9771 10.831 82.6732 11.1398 82.438 11.5515C82.2125 11.9533 82.0998 12.4336 82.0998 12.9923C82.0998 13.551 82.2125 14.0411 82.438 14.4626C82.6732 14.884 82.9771 15.2075 83.3495 15.4329C83.7318 15.6486 84.1337 15.7564 84.5551 15.7564C84.9864 15.7564 85.3883 15.6486 85.7607 15.4329C86.1332 15.2173 86.4322 14.9036 86.6576 14.492C86.8928 14.0705 87.0105 13.5804 87.0105 13.0217ZM92.5788 10.1547C92.8239 9.74303 93.1473 9.42448 93.5492 9.19904C93.9609 8.9638 94.446 8.84618 95.0047 8.84618V10.5811H94.5784C93.9217 10.5811 93.4218 10.7477 93.0787 11.081C92.7454 11.4142 92.5788 11.9925 92.5788 12.8159V17.0796H90.9027V8.9785H92.5788V10.1547ZM95.9868 12.9923C95.9868 12.1788 96.1534 11.4583 96.4867 10.831C96.8297 10.2037 97.2904 9.71853 97.8687 9.37547C98.4568 9.02261 99.1037 8.84618 99.8094 8.84618C100.447 8.84618 101 8.9736 101.471 9.22844C101.951 9.47349 102.333 9.78224 102.618 10.1547V8.9785H104.308V17.0796H102.618V15.874C102.333 16.2563 101.946 16.5748 101.456 16.8297C100.966 17.0845 100.407 17.2119 99.78 17.2119C99.0841 17.2119 98.447 17.0355 97.8687 16.6826C97.2904 16.32 96.8297 15.8201 96.4867 15.183C96.1534 14.5361 95.9868 13.8058 95.9868 12.9923ZM102.618 13.0217C102.618 12.463 102.5 11.9778 102.265 11.5662C102.039 11.1545 101.74 10.8408 101.368 10.6252C100.995 10.4096 100.594 10.3017 100.162 10.3017C99.731 10.3017 99.3292 10.4096 98.9567 10.6252C98.5842 10.831 98.2804 11.1398 98.0451 11.5515C97.8197 11.9533 97.707 12.4336 97.707 12.9923C97.707 13.551 97.8197 14.0411 98.0451 14.4626C98.2804 14.884 98.5842 15.2075 98.9567 15.4329C99.339 15.6486 99.7408 15.7564 100.162 15.7564C100.594 15.7564 100.995 15.6486 101.368 15.4329C101.74 15.2173 102.039 14.9036 102.265 14.492C102.5 14.0705 102.618 13.5804 102.618 13.0217ZM108.465 10.3458V14.8301C108.465 15.134 108.534 15.3545 108.671 15.4917C108.818 15.6192 109.063 15.6829 109.406 15.6829H110.435V17.0796H109.112C108.357 17.0796 107.779 16.9032 107.377 16.5503C106.975 16.1975 106.774 15.6241 106.774 14.8301V10.3458H105.819V8.9785H106.774V6.96425H108.465V8.9785H110.435V10.3458H108.465ZM119.405 12.8306C119.405 13.1344 119.385 13.4089 119.346 13.6539H113.156C113.205 14.3008 113.445 14.8203 113.877 15.2124C114.308 15.6045 114.837 15.8005 115.465 15.8005C116.366 15.8005 117.004 15.4231 117.376 14.6684H119.184C118.939 15.4133 118.493 16.0259 117.846 16.5062C117.209 16.9767 116.415 17.2119 115.465 17.2119C114.69 17.2119 113.994 17.0404 113.377 16.6974C112.769 16.3445 112.289 15.8544 111.936 15.2271C111.593 14.59 111.421 13.8549 111.421 13.0217C111.421 12.1886 111.588 11.4583 111.921 10.831C112.264 10.1939 112.74 9.70383 113.347 9.36077C113.965 9.01771 114.671 8.84618 115.465 8.84618C116.229 8.84618 116.91 9.01281 117.508 9.34606C118.106 9.67932 118.572 10.1498 118.905 10.7575C119.238 11.3554 119.405 12.0464 119.405 12.8306ZM117.655 12.3013C117.646 11.6838 117.425 11.1888 116.994 10.8163C116.562 10.4439 116.028 10.2576 115.391 10.2576C114.813 10.2576 114.318 10.4439 113.906 10.8163C113.495 11.179 113.249 11.674 113.171 12.3013H117.655ZM56.3065 23.5243C57.3945 23.5243 58.3452 23.735 59.1588 24.1565C59.9821 24.5681 60.6143 25.166 61.0554 25.9502C61.5063 26.7245 61.7317 27.6312 61.7317 28.6702C61.7317 29.7091 61.5063 30.6109 61.0554 31.3754C60.6143 32.14 59.9821 32.7281 59.1588 33.1397C58.3452 33.5416 57.3945 33.7425 56.3065 33.7425H52.969V23.5243H56.3065ZM56.3065 32.3752C57.5023 32.3752 58.4187 32.0517 59.0559 31.4048C59.693 30.7579 60.0115 29.8464 60.0115 28.6702C60.0115 27.4841 59.693 26.5579 59.0559 25.8914C58.4187 25.2248 57.5023 24.8916 56.3065 24.8916H54.6451V32.3752H56.3065ZM65.0689 26.8176C65.314 26.406 65.6374 26.0874 66.0393 25.862C66.451 25.6267 66.9362 25.5091 67.4948 25.5091V27.244H67.0685C66.4118 27.244 65.9119 27.4106 65.5688 27.7439C65.2355 28.0771 65.0689 28.6555 65.0689 29.4788V33.7425H63.3928V25.6414H65.0689V26.8176ZM72.5495 33.8749C71.785 33.8749 71.0939 33.7033 70.4764 33.3603C69.8589 33.0074 69.3737 32.5173 69.0209 31.89C68.668 31.2529 68.4916 30.5178 68.4916 29.6846C68.4916 28.8613 68.6729 28.1311 69.0356 27.4939C69.3982 26.8568 69.8932 26.3667 70.5205 26.0237C71.1479 25.6806 71.8487 25.5091 72.623 25.5091C73.3973 25.5091 74.0982 25.6806 74.7255 26.0237C75.3528 26.3667 75.8478 26.8568 76.2104 27.4939C76.5731 28.1311 76.7544 28.8613 76.7544 29.6846C76.7544 30.508 76.5682 31.2382 76.1957 31.8753C75.8233 32.5124 75.3136 33.0074 74.6667 33.3603C74.0296 33.7033 73.3238 33.8749 72.5495 33.8749ZM72.5495 32.4193C72.9808 32.4193 73.3826 32.3164 73.7551 32.1106C74.1374 31.9047 74.4461 31.596 74.6814 31.1843C74.9166 30.7726 75.0342 30.2727 75.0342 29.6846C75.0342 29.0965 74.9215 28.6015 74.6961 28.1997C74.4706 27.788 74.1717 27.4792 73.7992 27.2734C73.4268 27.0676 73.0249 26.9647 72.5936 26.9647C72.1623 26.9647 71.7605 27.0676 71.388 27.2734C71.0253 27.4792 70.7362 27.788 70.5205 28.1997C70.3049 28.6015 70.1971 29.0965 70.1971 29.6846C70.1971 30.557 70.4176 31.2333 70.8587 31.7136C71.3096 32.1841 71.8732 32.4193 72.5495 32.4193ZM80.0874 26.8323C80.3717 26.4599 80.7588 26.1462 81.2489 25.8914C81.739 25.6365 82.2928 25.5091 82.9103 25.5091C83.616 25.5091 84.258 25.6855 84.8363 26.0384C85.4244 26.3814 85.8851 26.8666 86.2184 27.4939C86.5516 28.1213 86.7183 28.8417 86.7183 29.6552C86.7183 30.4688 86.5516 31.199 86.2184 31.8459C85.8851 32.483 85.4244 32.9829 84.8363 33.3456C84.258 33.6984 83.616 33.8749 82.9103 33.8749C82.2928 33.8749 81.7439 33.7523 81.2636 33.5073C80.7833 33.2525 80.3913 32.9388 80.0874 32.5663V37.5946H78.4113V25.6414H80.0874V26.8323ZM85.0128 29.6552C85.0128 29.0965 84.8952 28.6162 84.6599 28.2144C84.4345 27.8027 84.1306 27.4939 83.7484 27.2881C83.3759 27.0725 82.974 26.9647 82.5427 26.9647C82.1213 26.9647 81.7194 27.0725 81.3371 27.2881C80.9647 27.5037 80.6608 27.8174 80.4256 28.2291C80.2001 28.6407 80.0874 29.1259 80.0874 29.6846C80.0874 30.2433 80.2001 30.7334 80.4256 31.1549C80.6608 31.5666 80.9647 31.8802 81.3371 32.0959C81.7194 32.3115 82.1213 32.4193 82.5427 32.4193C82.974 32.4193 83.3759 32.3115 83.7484 32.0959C84.1306 31.8704 84.4345 31.547 84.6599 31.1255C84.8952 30.704 85.0128 30.2139 85.0128 29.6552ZM90.0518 26.847C90.3361 26.455 90.7233 26.1364 91.2133 25.8914C91.7132 25.6365 92.267 25.5091 92.8747 25.5091C93.5903 25.5091 94.2372 25.6806 94.8155 26.0237C95.3938 26.3667 95.8495 26.8568 96.1828 27.4939C96.5161 28.1213 96.6827 28.8417 96.6827 29.6552C96.6827 30.4688 96.5161 31.199 96.1828 31.8459C95.8495 32.483 95.3889 32.9829 94.8008 33.3456C94.2225 33.6984 93.5805 33.8749 92.8747 33.8749C92.2474 33.8749 91.6887 33.7523 91.1986 33.5073C90.7183 33.2623 90.3361 32.9486 90.0518 32.5663V33.7425H88.3757V22.8626H90.0518V26.847ZM94.9772 29.6552C94.9772 29.0965 94.8596 28.6162 94.6243 28.2144C94.3989 27.8027 94.095 27.4939 93.7128 27.2881C93.3403 27.0725 92.9384 26.9647 92.5072 26.9647C92.0857 26.9647 91.6838 27.0725 91.3016 27.2881C90.9291 27.5037 90.6252 27.8174 90.39 28.2291C90.1646 28.6407 90.0518 29.1259 90.0518 29.6846C90.0518 30.2433 90.1646 30.7334 90.39 31.1549C90.6252 31.5666 90.9291 31.8802 91.3016 32.0959C91.6838 32.3115 92.0857 32.4193 92.5072 32.4193C92.9384 32.4193 93.3403 32.3115 93.7128 32.0959C94.095 31.8704 94.3989 31.547 94.6243 31.1255C94.8596 30.704 94.9772 30.2139 94.9772 29.6552ZM101.854 33.8749C101.09 33.8749 100.399 33.7033 99.781 33.3603C99.1635 33.0074 98.6783 32.5173 98.3255 31.89C97.9726 31.2529 97.7962 30.5178 97.7962 29.6846C97.7962 28.8613 97.9775 28.1311 98.3402 27.4939C98.7028 26.8568 99.1978 26.3667 99.8251 26.0237C100.452 25.6806 101.153 25.5091 101.927 25.5091C102.702 25.5091 103.403 25.6806 104.03 26.0237C104.657 26.3667 105.152 26.8568 105.515 27.4939C105.878 28.1311 106.059 28.8613 106.059 29.6846C106.059 30.508 105.873 31.2382 105.5 31.8753C105.128 32.5124 104.618 33.0074 103.971 33.3603C103.334 33.7033 102.628 33.8749 101.854 33.8749ZM101.854 32.4193C102.285 32.4193 102.687 32.3164 103.06 32.1106C103.442 31.9047 103.751 31.596 103.986 31.1843C104.221 30.7726 104.339 30.2727 104.339 29.6846C104.339 29.0965 104.226 28.6015 104.001 28.1997C103.775 27.788 103.476 27.4792 103.104 27.2734C102.731 27.0676 102.329 26.9647 101.898 26.9647C101.467 26.9647 101.065 27.0676 100.693 27.2734C100.33 27.4792 100.041 27.788 99.8251 28.1997C99.6095 28.6015 99.5017 29.0965 99.5017 29.6846C99.5017 30.557 99.7222 31.2333 100.163 31.7136C100.614 32.1841 101.178 32.4193 101.854 32.4193ZM111.186 29.6405L113.803 33.7425H111.907L110.157 30.9932L108.51 33.7425H106.761L109.378 29.7581L106.761 25.6414H108.657L110.407 28.3908L112.054 25.6414H113.803L111.186 29.6405Z" fill="#F7F5F2"/>
  <defs>
    <filter id="filter0_d_682_23693" x="22.1726" y="9" width="14.321" height="15.1172" filterUnits="userSpaceOnUse" color-interpolation-filters="sRGB">
      <feFlood flood-opacity="0" result="BackgroundImageFix"/>
      <feColorMatrix in="SourceAlpha" type="matrix" values="0 0 0 0 0 0 0 0 0 0 0 0 0 0 0 0 0 0 127 0" result="hardAlpha"/>
      <feOffset dy="4"/>
      <feGaussianBlur stdDeviation="2"/>
      <feComposite in2="hardAlpha" operator="out"/>
      <feColorMatrix type="matrix" values="0 0 0 0 1 0 0 0 0 1 0 0 0 0 1 0 0 0 0.09 0"/>
      <feBlend mode="normal" in2="BackgroundImageFix" result="effect1_dropShadow_682_23693"/>
      <feBlend mode="normal" in="SourceGraphic" in2="effect1_dropShadow_682_23693" result="shape"/>
    </filter>
    <filter id="filter1_d_682_23693" x="14.1726" y="1" width="30.321" height="31.1172" filterUnits="userSpaceOnUse" color-interpolation-filters="sRGB">
      <feFlood flood-opacity="0" result="BackgroundImageFix"/>
      <feColorMatrix in="SourceAlpha" type="matrix" values="0 0 0 0 0 0 0 0 0 0 0 0 0 0 0 0 0 0 127 0" result="hardAlpha"/>
      <feOffset dy="4"/>
      <feGaussianBlur stdDeviation="6"/>
      <feComposite in2="hardAlpha" operator="out"/>
      <feColorMatrix type="matrix" values="0 0 0 0 0 0 0 0 0 0 0 0 0 0 0 0 0 0 0.2 0"/>
      <feBlend mode="normal" in2="BackgroundImageFix" result="effect1_dropShadow_682_23693"/>
      <feBlend mode="normal" in="SourceGraphic" in2="effect1_dropShadow_682_23693" result="shape"/>
    </filter>
    <filter id="filter2_d_682_23693" x="8.01514" y="24.916" width="14.3564" height="15.0938" filterUnits="userSpaceOnUse" color-interpolation-filters="sRGB">
      <feFlood flood-opacity="0" result="BackgroundImageFix"/>
      <feColorMatrix in="SourceAlpha" type="matrix" values="0 0 0 0 0 0 0 0 0 0 0 0 0 0 0 0 0 0 127 0" result="hardAlpha"/>
      <feOffset dy="4"/>
      <feGaussianBlur stdDeviation="2"/>
      <feComposite in2="hardAlpha" operator="out"/>
      <feColorMatrix type="matrix" values="0 0 0 0 1 0 0 0 0 1 0 0 0 0 1 0 0 0 0.09 0"/>
      <feBlend mode="normal" in2="BackgroundImageFix" result="effect1_dropShadow_682_23693"/>
      <feBlend mode="normal" in="SourceGraphic" in2="effect1_dropShadow_682_23693" result="shape"/>
    </filter>
    <filter id="filter3_d_682_23693" x="0.0151367" y="16.916" width="30.3564" height="31.0938" filterUnits="userSpaceOnUse" color-interpolation-filters="sRGB">
      <feFlood flood-opacity="0" result="BackgroundImageFix"/>
      <feColorMatrix in="SourceAlpha" type="matrix" values="0 0 0 0 0 0 0 0 0 0 0 0 0 0 0 0 0 0 127 0" result="hardAlpha"/>
      <feOffset dy="4"/>
      <feGaussianBlur stdDeviation="6"/>
      <feComposite in2="hardAlpha" operator="out"/>
      <feColorMatrix type="matrix" values="0 0 0 0 0 0 0 0 0 0 0 0 0 0 0 0 0 0 0.2 0"/>
      <feBlend mode="normal" in2="BackgroundImageFix" result="effect1_dropShadow_682_23693"/>
      <feBlend mode="normal" in="SourceGraphic" in2="effect1_dropShadow_682_23693" result="shape"/>
    </filter>
    <filter id="filter4_d_682_23693" x="0.861084" y="3.8418" width="31.7422" height="31.5176" filterUnits="userSpaceOnUse" color-interpolation-filters="sRGB">
      <feFlood flood-opacity="0" result="BackgroundImageFix"/>
      <feColorMatrix in="SourceAlpha" type="matrix" values="0 0 0 0 0 0 0 0 0 0 0 0 0 0 0 0 0 0 127 0" result="hardAlpha"/>
      <feOffset dy="4"/>
      <feGaussianBlur stdDeviation="4"/>
      <feComposite in2="hardAlpha" operator="out"/>
      <feColorMatrix type="matrix" values="0 0 0 0 0 0 0 0 0 0 0 0 0 0 0 0 0 0 0.21 0"/>
      <feBlend mode="normal" in2="BackgroundImageFix" result="effect1_dropShadow_682_23693"/>
      <feBlend mode="normal" in="SourceGraphic" in2="effect1_dropShadow_682_23693" result="shape"/>
    </filter>
    <filter id="filter5_d_682_23693" x="8.4021" y="11.7168" width="16.8723" height="15.4023" filterUnits="userSpaceOnUse" color-interpolation-filters="sRGB">
      <feFlood flood-opacity="0" result="BackgroundImageFix"/>
      <feColorMatrix in="SourceAlpha" type="matrix" values="0 0 0 0 0 0 0 0 0 0 0 0 0 0 0 0 0 0 127 0" result="hardAlpha"/>
      <feOffset dy="4"/>
      <feGaussianBlur stdDeviation="2"/>
      <feComposite in2="hardAlpha" operator="out"/>
      <feColorMatrix type="matrix" values="0 0 0 0 0 0 0 0 0 0 0 0 0 0 0 0 0 0 0.07 0"/>
      <feBlend mode="normal" in2="BackgroundImageFix" result="effect1_dropShadow_682_23693"/>
      <feBlend mode="normal" in="SourceGraphic" in2="effect1_dropShadow_682_23693" result="shape"/>
    </filter>
    <filter id="filter6_d_682_23693" x="11.8711" y="13.5312" width="31.7422" height="31.5215" filterUnits="userSpaceOnUse" color-interpolation-filters="sRGB">
      <feFlood flood-opacity="0" result="BackgroundImageFix"/>
      <feColorMatrix in="SourceAlpha" type="matrix" values="0 0 0 0 0 0 0 0 0 0 0 0 0 0 0 0 0 0 127 0" result="hardAlpha"/>
      <feOffset dy="4"/>
      <feGaussianBlur stdDeviation="4"/>
      <feComposite in2="hardAlpha" operator="out"/>
      <feColorMatrix type="matrix" values="0 0 0 0 0 0 0 0 0 0 0 0 0 0 0 0 0 0 0.21 0"/>
      <feBlend mode="normal" in2="BackgroundImageFix" result="effect1_dropShadow_682_23693"/>
      <feBlend mode="normal" in="SourceGraphic" in2="effect1_dropShadow_682_23693" result="shape"/>
    </filter>
    <filter id="filter7_d_682_23693" x="19.8047" y="21.4062" width="16.2446" height="16.166" filterUnits="userSpaceOnUse" color-interpolation-filters="sRGB">
      <feFlood flood-opacity="0" result="BackgroundImageFix"/>
      <feColorMatrix in="SourceAlpha" type="matrix" values="0 0 0 0 0 0 0 0 0 0 0 0 0 0 0 0 0 0 127 0" result="hardAlpha"/>
      <feOffset dy="4"/>
      <feGaussianBlur stdDeviation="2"/>
      <feComposite in2="hardAlpha" operator="out"/>
      <feColorMatrix type="matrix" values="0 0 0 0 0 0 0 0 0 0 0 0 0 0 0 0 0 0 0.07 0"/>
      <feBlend mode="normal" in2="BackgroundImageFix" result="effect1_dropShadow_682_23693"/>
      <feBlend mode="normal" in="SourceGraphic" in2="effect1_dropShadow_682_23693" result="shape"/>
    </filter>
  </defs>
</svg>